# xmcd
#
# Track frame offsets:
#	150
#	17421
#	29691
#	51320
#	68117
#	82047
#	97840
#	110665
#	123930
#	148598
#	165310
#	180460
#	197592
#	212600
#
# Disc length: 3046 seconds
#
# Revision: 0
# Processed by: cddbd v1.5PL3 Copyright (c) Steve Scherf et al.
# Submitted via: dBpowerAMP V4.0
#
DISCID=b80be40e
DTITLE=Paulo Cesar Pinheiro - O Lamento do Samba
DYEAR=2004
DGENRE=Blues
TTITLE0=O lamento do samba
TTITLE1=Estrela partida
TTITLE2=Nomes de favela
TTITLE3=As pedras se cruzam
TTITLE4=Amor ausente
TTITLE5=Voce jamais
TTITLE6=Fechado por dentro
TTITLE7=Sublime paixão
TTITLE8=Samba da tristeza
TTITLE9=Temporária
TTITLE10=Meu sofrimento
TTITLE11=E uma sina
TTITLE12=Meia-agua
TTITLE13=Quando eu me for
EXTD=
EXTT0=
EXTT1=
EXTT2=
EXTT3=
EXTT4=
EXTT5=
EXTT6=
EXTT7=
EXTT8=
EXTT9=
EXTT10=
EXTT11=
EXTT12=
EXTT13=
PLAYORDER=
